<svg width="24" height="24" viewBox="0 0 24 24" fill="none" xmlns="http://www.w3.org/2000/svg">
<path d="M16.39 15.3101H12.2C12.0673 15.3101 11.9402 15.2574 11.8464 15.1636C11.7526 15.0698 11.7 14.9427 11.7 14.8101C11.7 14.6775 11.7526 14.5503 11.8464 14.4565C11.9402 14.3627 12.0673 14.3101 12.2 14.3101H16.39C16.5226 14.3101 16.6497 14.3627 16.7435 14.4565C16.8373 14.5503 16.89 14.6775 16.89 14.8101C16.89 14.9427 16.8373 15.0698 16.7435 15.1636C16.6497 15.2574 16.5226 15.3101 16.39 15.3101Z" fill="#414042"/>
<path d="M19.2099 15C19.1507 15.0141 19.0891 15.0141 19.0299 15C18.9683 14.9778 18.9118 14.9435 18.8636 14.899C18.8155 14.8546 18.7768 14.8009 18.7497 14.7413C18.7227 14.6816 18.7079 14.6171 18.7062 14.5516C18.7045 14.4862 18.716 14.421 18.7399 14.36L21.1199 8.00002C21.167 7.87723 21.2606 7.77793 21.3804 7.72365C21.5002 7.66937 21.6365 7.66447 21.7599 7.71002C21.8837 7.75932 21.9838 7.85423 22.0396 7.97518C22.0954 8.09612 22.1027 8.23387 22.0599 8.36002L19.6799 14.69C19.6396 14.7814 19.5739 14.8592 19.4905 14.9141C19.4072 14.9691 19.3098 14.9989 19.2099 15Z" fill="#414042"/>
<path d="M8.99989 15.1901C8.89556 15.1908 8.79371 15.1582 8.70917 15.0971C8.62464 15.0359 8.56183 14.9494 8.52989 14.8501L5.38989 5.31006H2.38989C2.25728 5.31006 2.13011 5.25738 2.03634 5.16361C1.94257 5.06984 1.88989 4.94267 1.88989 4.81006C1.89245 4.67825 1.94595 4.55256 2.03917 4.45934C2.13239 4.36612 2.25809 4.31262 2.38989 4.31006H5.74989C5.8535 4.31227 5.95398 4.34599 6.03794 4.40673C6.1219 4.46747 6.18537 4.55235 6.21989 4.65006L9.50989 14.5301C9.53181 14.5917 9.54115 14.6572 9.53736 14.7225C9.53357 14.7878 9.51673 14.8518 9.48784 14.9105C9.45894 14.9692 9.41857 15.0215 9.36912 15.0644C9.31967 15.1073 9.26212 15.1398 9.19989 15.1601C9.13637 15.1851 9.06797 15.1954 8.99989 15.1901Z" fill="#414042"/>
<path d="M10.5398 19.6901C9.94645 19.6901 9.36643 19.5141 8.87309 19.1845C8.37974 18.8548 7.99522 18.3863 7.76816 17.8381C7.54109 17.2899 7.48168 16.6867 7.59744 16.1048C7.7132 15.5229 7.99892 14.9883 8.41848 14.5687C8.83803 14.1492 9.37258 13.8635 9.95453 13.7477C10.5365 13.632 11.1397 13.6914 11.6878 13.9184C12.236 14.1455 12.7046 14.53 13.0342 15.0234C13.3638 15.5167 13.5398 16.0967 13.5398 16.6901C13.5398 17.4857 13.2237 18.2488 12.6611 18.8114C12.0985 19.374 11.3354 19.6901 10.5398 19.6901ZM10.5398 14.6901C10.1442 14.6901 9.75755 14.8074 9.42866 15.0271C9.09976 15.2469 8.84341 15.5592 8.69204 15.9247C8.54066 16.2901 8.50105 16.6923 8.57823 17.0802C8.6554 17.4682 8.84588 17.8246 9.12558 18.1043C9.40529 18.384 9.76165 18.5745 10.1496 18.6516C10.5376 18.7288 10.9397 18.6892 11.3052 18.5378C11.6706 18.3864 11.983 18.1301 12.2027 17.8012C12.4225 17.4723 12.5398 17.0856 12.5398 16.6901C12.5398 16.1596 12.3291 15.6509 11.954 15.2759C11.5789 14.9008 11.0702 14.6901 10.5398 14.6901Z" fill="#414042"/>
<path d="M18.0498 19.6901C17.4565 19.6901 16.8764 19.5141 16.3831 19.1845C15.8897 18.8548 15.5052 18.3863 15.2782 17.8381C15.0511 17.2899 14.9917 16.6867 15.1075 16.1048C15.2232 15.5229 15.5089 14.9883 15.9285 14.5687C16.348 14.1492 16.8826 13.8635 17.4645 13.7477C18.0465 13.632 18.6497 13.6914 19.1979 13.9184C19.746 14.1455 20.2146 14.53 20.5442 15.0234C20.8739 15.5167 21.0498 16.0967 21.0498 16.6901C21.0498 17.4857 20.7337 18.2488 20.1711 18.8114C19.6085 19.374 18.8455 19.6901 18.0498 19.6901ZM18.0498 14.6901C17.6542 14.6901 17.2676 14.8074 16.9387 15.0271C16.6098 15.2469 16.3534 15.5592 16.202 15.9247C16.0507 16.2901 16.0111 16.6923 16.0882 17.0802C16.1654 17.4682 16.3559 17.8246 16.6356 18.1043C16.9153 18.384 17.2717 18.5745 17.6596 18.6516C18.0476 18.7288 18.4497 18.6892 18.8152 18.5378C19.1806 18.3864 19.493 18.1301 19.7127 17.8012C19.9325 17.4723 20.0498 17.0856 20.0498 16.6901C20.0498 16.1596 19.8391 15.6509 19.464 15.2759C19.0889 14.9008 18.5802 14.6901 18.0498 14.6901Z" fill="#414042"/>
</svg>
